HIERARCHY
ROOT joint_Root
{
  OFFSET 0 0 0
  CHANNELS 6 Xposition Yposition Zposition Zrotation Xrotation Yrotation
  JOINT Hips
  {
    OFFSET 0 93.9241 -3
    CHANNELS 6 Xposition Yposition Zposition Zrotation Xrotation Yrotation
    JOINT Spine
    {
      OFFSET 15.7357 0 0
      CHANNELS 6 Xposition Yposition Zposition Zrotation Xrotation Yrotation
      JOINT Chest
      {
        OFFSET 8.98455 -0.406207 0
        CHANNELS 6 Xposition Yposition Zposition Zrotation Xrotation Yrotation
        JOINT Neck
        {
          OFFSET 16.3773 0 0
          CHANNELS 6 Xposition Yposition Zposition Zrotation Xrotation Yrotation
          JOINT Head
          {
            OFFSET 6.45672 0 0
            CHANNELS 6 Xposition Yposition Zposition Zrotation Xrotation Yrotation
            End Site
            {
              OFFSET 0 0 0
            }
          }
        }
        JOINT Shoulder_L
        {
          OFFSET 12.9942 -0.242716 4.98039
          CHANNELS 6 Xposition Yposition Zposition Zrotation Xrotation Yrotation
          JOINT UpperArm_L
          {
            OFFSET 5.34809 0 0
            CHANNELS 6 Xposition Yposition Zposition Zrotation Xrotation Yrotation
            JOINT LowerArm_L
            {
              OFFSET 24.3286 1.87007e-05 0
              CHANNELS 6 Xposition Yposition Zposition Zrotation Xrotation Yrotation
              JOINT Hand_L
              {
                OFFSET 22.2916 0 0
                CHANNELS 6 Xposition Yposition Zposition Zrotation Xrotation Yrotation
                End Site
                {
                  OFFSET 0 0 0
                }
              }
            }
          }
        }
        JOINT Shoulder_R
        {
          OFFSET 12.9945 -0.242716 -4.98039
          CHANNELS 6 Xposition Yposition Zposition Zrotation Xrotation Yrotation
          JOINT UpperArm_R
          {
            OFFSET -5.34813 0 0
            CHANNELS 6 Xposition Yposition Zposition Zrotation Xrotation Yrotation
            JOINT LowerArm_R
            {
              OFFSET -24.3289 0.000322201 0
              CHANNELS 6 Xposition Yposition Zposition Zrotation Xrotation Yrotation
              JOINT Hand_R
              {
                OFFSET -22.2915 -0.000108084 0
                CHANNELS 6 Xposition Yposition Zposition Zrotation Xrotation Yrotation
                End Site
                {
                  OFFSET 0 0 0
                }
              }
            }
          }
        }
      }
    }
    JOINT UpperLeg_L
    {
      OFFSET -2.19248 -6.46944 0
      CHANNELS 6 Xposition Yposition Zposition Zrotation Xrotation Yrotation
      JOINT LowerLeg_L
      {
        OFFSET 39.0811 0 -1.23785e-05
        CHANNELS 6 Xposition Yposition Zposition Zrotation Xrotation Yrotation
        JOINT Foot_L
        {
          OFFSET 40.9854 0 -1.26872e-05
          CHANNELS 6 Xposition Yposition Zposition Zrotation Xrotation Yrotation
          JOINT Toes_L
          {
            OFFSET 11.7543 0 0
            CHANNELS 6 Xposition Yposition Zposition Zrotation Xrotation Yrotation
            End Site
            {
              OFFSET 0 0 0
            }
          }
        }
      }
    }
    JOINT UpperLeg_R
    {
      OFFSET -2.19251 6.46944 0
      CHANNELS 6 Xposition Yposition Zposition Zrotation Xrotation Yrotation
      JOINT LowerLeg_R
      {
        OFFSET -39.0811 -0.00228153 -0.0401928
        CHANNELS 6 Xposition Yposition Zposition Zrotation Xrotation Yrotation
        JOINT Foot_R
        {
          OFFSET -40.9854 0 0
          CHANNELS 6 Xposition Yposition Zposition Zrotation Xrotation Yrotation
          JOINT Toes_R
          {
            OFFSET -11.7543 0 0
            CHANNELS 6 Xposition Yposition Zposition Zrotation Xrotation Yrotation
            End Site
            {
              OFFSET 0 0 0
            }
          }
        }
      }
    }
  }
}
MOTION
Frames:	8
Frame Time:	0.0333333
0 0 0 0 0 -0 1.58064 88.8158 20.9814 88.0986 -63.5912 -6.15158 15.7357 5.1072e-06 -5.51765e-07 109.008 85.2351 -109.133 8.98455 -0.406207 -4.3199e-07 1.2498 3.10954 -0.284839 16.3773 -1.3905e-06 -6.99897e-07 -8.77676 17.3134 -1.12096 6.45672 -1.25837e-06 -1.02172e-07 5.51708 23.4261 -4.14576 12.9942 -0.242716 4.98039 -89.6965 -2.74406 -98.6852 5.34809 -7.22636e-06 -6.2814e-07 -59.6496 -40.9705 -36.8984 24.3286 1.87007e-05 4.90208e-06 -5.89567 5.14359 -130.964 22.2916 -9.88446e-07 4.63217e-06 4.78326 5.41563 -3.45269 12.9945 -0.242716 -4.98039 90.2868 -11.0446 -103.503 -5.34813 -1.25947e-06 -3.79883e-06 -62.0115 30.0248 -57.1554 -24.3289 0.000322201 -8.65921e-06 11.9557 -8.36906 -124.503 -22.2915 -0.000108084 -4.47941e-06 21.0554 5.14935 3.95829 -2.19248 -6.46944 -1.22534e-07 -162.919 -16.5463 -24.9752 39.0811 -6.73843e-06 -1.23785e-05 0.428526 -0.592104 36.5612 40.9854 -6.48686e-06 -1.26872e-05 -10.2255 -2.4777 -47.8492 11.7543 -2.30145e-07 3.05095e-06 -1.48052 -2.17469 -21.5989 -2.19251 6.46944 -1.45247e-06 172.284 -0.526319 163.816 -39.0811 -0.00228153 -0.0401928 0.213092 -0.274882 36.8412 -40.9854 7.72618e-06 5.99936e-06 -8.47445 -0.417797 -72.294 -11.7543 -5.6619e-06 -5.58687e-06 -0.0174418 -0.389999 -19.492 
0 0 0 0 0 -0 2.02513 86.9592 21.0339 87.9781 -64.3692 -6.85375 15.7357 5.1072e-06 -5.51765e-07 103.447 85.0265 -103.509 8.98455 -0.406207 -4.3199e-07 1.91107 2.31489 -0.163033 16.3773 -1.3905e-06 -6.99897e-07 -9.25253 18.2582 -1.7553 6.45672 -1.25837e-06 -1.02172e-07 5.30209 24.7158 -5.24633 12.9942 -0.242716 4.98039 -89.7665 -2.31556 -99.2382 5.34809 -7.22636e-06 -6.2814e-07 -60.9656 -43.0623 -36.4291 24.3286 1.87007e-05 4.90208e-06 -7.43273 6.53591 -131.105 22.2916 -9.88446e-07 4.63217e-06 4.42773 5.42244 -3.68105 12.9945 -0.242716 -4.98039 90.4558 -10.7735 -102.563 -5.34813 -1.25947e-06 -3.79883e-06 -59.9673 30.5116 -59.0914 -24.3289 0.000322201 -8.65921e-06 11.9961 -8.40586 -124.526 -22.2915 -0.000108084 -4.47941e-06 20.4869 5.09423 5.24558 -2.19248 -6.46944 -1.22534e-07 -162.5 -19.4108 -28.1114 39.0811 -6.73843e-06 -1.23785e-05 0.519193 -0.593661 41.8829 40.9854 -6.48686e-06 -1.26872e-05 -9.97671 -3.23521 -51.7933 11.7543 -2.30145e-07 3.05095e-06 -0.917878 -1.51568 -20.456 -2.19251 6.46944 -1.45247e-06 172.033 3.18657 160.224 -39.0811 -0.00228153 -0.0401928 0.171545 -0.177875 42.676 -40.9854 7.72618e-06 5.99936e-06 -8.45103 1.86338 -77.5276 -11.7543 -5.6619e-06 -5.58687e-06 -0.0427838 0.0339441 -16.5727 
0 0 0 0 0 -0 2.58344 85.196 21.5609 89.0315 -64.4343 -6.97328 15.7357 5.1072e-06 -5.51765e-07 96.5817 84.986 -96.6177 8.98455 -0.406207 -4.3199e-07 2.19656 1.15063 -0.0941687 16.3773 -1.3905e-06 -6.99897e-07 -9.64549 19.4367 -2.41526 6.45672 -1.25837e-06 -1.02172e-07 5.18432 26.1939 -6.93164 12.9942 -0.242716 4.98039 -89.8399 -1.60567 -99.3046 5.34809 -7.22636e-06 -6.2814e-07 -62.4154 -45.9354 -34.79 24.3286 1.87007e-05 4.90208e-06 -11.9458 10.7401 -131.392 22.2916 -9.88446e-07 4.63217e-06 4.1858 5.43319 -4.04873 12.9945 -0.242716 -4.98039 90.5582 -10.6934 -101.994 -5.34813 -1.25947e-06 -3.79883e-06 -57.5643 30.5587 -61.6869 -24.3289 0.000322201 -8.65921e-06 14.0498 -9.70942 -123.977 -22.2915 -0.000108084 -4.47941e-06 19.0275 5.05091 6.21723 -2.19248 -6.46944 -1.22534e-07 -163.286 -22.3478 -31.7973 39.0811 -6.73843e-06 -1.23785e-05 0.558726 -0.563629 45.552 40.9854 -6.48686e-06 -1.26872e-05 -7.52456 -6.70745 -54.8539 11.7543 -2.30145e-07 3.05095e-06 0.20267 -0.233775 -18.8323 -2.19251 6.46944 -1.45247e-06 170.77 4.53766 155.894 -39.0811 -0.00228153 -0.0401928 0.338201 -0.290033 48.8765 -40.9854 7.72618e-06 5.99936e-06 -8.88252 3.51264 -80.1015 -11.7543 -5.6619e-06 -5.58687e-06 0.00605062 -0.00627513 -16.6225 
0 0 0 0 0 -0 3.03509 83.7817 22.4936 89.9507 -62.2168 -7.31518 15.7357 5.1072e-06 -5.51765e-07 89.2514 85.076 -88.9956 8.98455 -0.406207 -4.3199e-07 2.08153 -0.141014 0.513497 16.3773 -1.3905e-06 -6.99897e-07 -9.81598 19.8675 -3.03559 6.45672 -1.25837e-06 -1.02172e-07 5.54049 26.8329 -8.69205 12.9942 -0.242716 4.98039 -89.9136 -0.9132 -99.5958 5.34809 -7.22636e-06 -6.2814e-07 -64.9256 -48.0665 -32.797 24.3286 1.87007e-05 4.90208e-06 -13.7162 12.9695 -132.601 22.2916 -9.88446e-07 4.63217e-06 4.04582 5.43821 -4.22298 12.9945 -0.242716 -4.98039 90.6786 -11.052 -101.465 -5.34813 -1.25947e-06 -3.79883e-06 -55.0476 29.8446 -64.6461 -24.3289 0.000322201 -8.65921e-06 14.8753 -10.0279 -123.247 -22.2915 -0.000108084 -4.47941e-06 19.7721 5.02089 6.87206 -2.19248 -6.46944 -1.22534e-07 -164.613 -23.8593 -35.6647 39.0811 -6.73843e-06 -1.23785e-05 0.541328 -0.53269 46.4635 40.9854 -6.48686e-06 -1.26872e-05 -6.20167 -9.53446 -56.7383 11.7543 -2.30145e-07 3.05095e-06 0.19284 -0.222022 -18.7207 -2.19251 6.46944 -1.45247e-06 169.71 6.24792 153.331 -39.0811 -0.00228153 -0.0401928 0.4344 -0.325722 52.9464 -40.9854 7.72618e-06 5.99936e-06 -10.1926 3.39071 -82.2449 -11.7543 -5.6619e-06 -5.58687e-06 0.0470795 -0.0490398 -16.9522 
0 0 0 0 0 -0 3.18678 82.8571 23.8548 91.1628 -57.1152 -7.1782 15.7357 5.1072e-06 -5.51765e-07 82.5496 85.3338 -82.0031 8.98455 -0.406207 -4.3199e-07 1.49406 -1.2394 1.10816 16.3773 -1.3905e-06 -6.99897e-07 -9.76042 18.801 -3.11115 6.45672 -1.25837e-06 -1.02172e-07 6.12847 26.0678 -9.59596 12.9942 -0.242716 4.98039 -89.993 -0.0803804 -100.104 5.34809 -7.22636e-06 -6.2814e-07 -66.7052 -47.2813 -30.7021 24.3286 1.87007e-05 4.90208e-06 -15.0446 14.862 -133.659 22.2916 -9.88446e-07 4.63217e-06 3.84164 5.44416 -4.43242 12.9945 -0.242716 -4.98039 90.8299 -11.1393 -100.712 -5.34813 -1.25947e-06 -3.79883e-06 -53.5383 27.8845 -66.2165 -24.3289 0.000322201 -8.65921e-06 15.6935 -10.4459 -122.834 -22.2915 -0.000108084 -4.47941e-06 19.3386 4.94456 8.47836 -2.19248 -6.46944 -1.22534e-07 -166.836 -23.6911 -39.9018 39.0811 -6.73843e-06 -1.23785e-05 0.504373 -0.512926 45.7445 40.9854 -6.48686e-06 -1.26872e-05 -6.27228 -8.68314 -56.7428 11.7543 -2.30145e-07 3.05095e-06 0.212565 -0.245699 -18.9451 -2.19251 6.46944 -1.45247e-06 168.614 8.96806 153.402 -39.0811 -0.00228153 -0.0401928 0.474731 -0.332837 54.8355 -40.9854 7.72618e-06 5.99936e-06 -12.5143 1.68006 -84.2412 -11.7543 -5.6619e-06 -5.58687e-06 0.0825866 -0.0864335 -17.2395 
0 0 0 0 0 -0 2.90521 82.3237 25.9132 93.2494 -49.1251 -5.47195 15.7357 5.1072e-06 -5.51765e-07 76.3319 85.5077 -75.8645 8.98455 -0.406207 -4.3199e-07 0.973888 -2.14978 0.952322 16.3773 -1.3905e-06 -6.99897e-07 -9.51202 16.3395 -2.69264 6.45672 -1.25837e-06 -1.02172e-07 6.57018 23.6204 -9.29873 12.9942 -0.242716 4.98039 -90.019 0.253833 -100.702 5.34809 -7.22636e-06 -6.2814e-07 -67.3365 -43.3044 -28.6986 24.3286 1.87007e-05 4.90208e-06 -16.7056 16.9899 -134.234 22.2916 -9.88446e-07 4.63217e-06 3.0221 5.44248 -4.37326 12.9945 -0.242716 -4.98039 91.0486 -11.4807 -99.7465 -5.34813 -1.25947e-06 -3.79883e-06 -54.0201 24.7278 -65.7985 -24.3289 0.000322201 -8.65921e-06 18.2257 -12.0264 -122.325 -22.2915 -0.000108084 -4.47941e-06 16.2373 4.81716 10.9925 -2.19248 -6.46944 -1.22534e-07 -170.035 -21.4449 -43.4689 39.0811 -6.73843e-06 -1.23785e-05 0.412595 -0.435191 44.9585 40.9854 -6.48686e-06 -1.26872e-05 -7.69778 -2.95894 -54.5041 11.7543 -2.30145e-07 3.05095e-06 0.218417 -0.252762 -19.0119 -2.19251 6.46944 -1.45247e-06 167.119 11.9831 156.262 -39.0811 -0.00228153 -0.0401928 0.745393 -0.497583 55.979 -40.9854 7.72618e-06 5.99936e-06 -14.1337 -3.21085 -86.0698 -11.7543 -5.6619e-06 -5.58687e-06 0.0643505 -0.170215 -17.5137 
0 0 0 0 0 -0 2.35904 81.9095 28.6912 95.4095 -38.1058 -3.15106 15.7357 5.1072e-06 -5.51765e-07 72.1911 85.667 -72.1659 8.98455 -0.406207 -4.3199e-07 0.486396 -2.65122 0.0616707 16.3773 -1.3905e-06 -6.99897e-07 -9.20965 12.4754 -1.61118 6.45672 -1.25837e-06 -1.02172e-07 7.80351 18.8763 -8.65375 12.9942 -0.242716 4.98039 -89.9923 -0.113801 -101.083 5.34809 -7.22636e-06 -6.2814e-07 -67.9031 -34.1408 -28.1579 24.3286 1.87007e-05 4.90208e-06 -17.5439 17.5223 -133.603 22.2916 -9.88446e-07 4.63217e-06 2.97507 5.44436 -4.43864 12.9945 -0.242716 -4.98039 91.3235 -12.5783 -98.9441 -5.34813 -1.25947e-06 -3.79883e-06 -55.4243 19.7813 -63.8979 -24.3289 0.000322201 -8.65921e-06 17.9614 -11.6948 -122.016 -22.2915 -0.000108084 -4.47941e-06 16.3966 4.69176 13.3046 -2.19248 -6.46944 -1.22534e-07 -174.258 -16.5781 -45.8174 39.0811 -6.73843e-06 -1.23785e-05 0.202916 -0.239066 42.9163 40.9854 -6.48686e-06 -1.26872e-05 -10.5645 1.02522 -50.9696 11.7543 -2.30145e-07 3.05095e-06 0.220218 -0.254918 -19.0324 -2.19251 6.46944 -1.45247e-06 165.121 15.6007 160.509 -39.0811 -0.00228153 -0.0401928 0.709329 -0.427223 58.1656 -40.9854 7.72618e-06 5.99936e-06 -17.151 -11.416 -84.7727 -11.7543 -5.6619e-06 -5.58687e-06 -1.52562 -2.47273 -21.5856 
0 0 0 0 0 -0 1.69483 81.2091 31.952 96.7804 -24.6513 -1.42961 15.7357 5.1072e-06 -5.51765e-07 73.8078 86.0611 -74.4294 8.98455 -0.406207 -4.3199e-07 -0.21169 -2.15304 -1.24648 16.3773 -1.3905e-06 -6.99897e-07 -8.41806 6.9838 -0.462719 6.45672 -1.25837e-06 -1.02172e-07 9.42044 11.3473 -7.18817 12.9942 -0.242716 4.98039 -89.9701 -0.470882 -101.365 5.34809 -7.22636e-06 -6.2814e-07 -67.1671 -21.152 -30.1117 24.3286 1.87007e-05 4.90208e-06 -17.8113 16.2654 -131.079 22.2916 -9.88446e-07 4.63217e-06 2.98877 5.4471 -4.53628 12.9945 -0.242716 -4.98039 91.5869 -14.1994 -98.5561 -5.34813 -1.25947e-06 -3.79883e-06 -57.6427 11.3738 -63.107 -24.3289 0.000322201 -8.65921e-06 19.2751 -11.5979 -119.894 -22.2915 -0.000108084 -4.47941e-06 14.7652 4.42948 17.753 -2.19248 -6.46944 -1.22534e-07 179.632 -10.4422 -48.4729 39.0811 -6.73843e-06 -1.23785e-05 0.107067 -0.127065 41.8153 40.9854 -6.48686e-06 -1.26872e-05 -5.99124 5.68421 -47.6486 11.7543 -2.30145e-07 3.05095e-06 0.200391 -0.231062 -18.8063 -2.19251 6.46944 -1.45247e-06 163.499 20.3688 164.95 -39.0811 -0.00228153 -0.0401928 0.610742 -0.29968 62.165 -40.9854 7.72618e-06 5.99936e-06 -16.754 -21.8945 -80.8497 -11.7543 -5.6619e-06 -5.58687e-06 -1.0831 -2.60971 -24.6693 
